<?xml version="1.0" encoding="utf-8"?>
<!-- Generator: Adobe Illustrator 24.2.3, SVG Export Plug-In . SVG Version: 6.00 Build 0)  -->
<svg version="1.1" id="Layer_1" xmlns="http://www.w3.org/2000/svg" xmlns:xlink="http://www.w3.org/1999/xlink" x="0px" y="0px"
	 viewBox="0 0 48 48" style="enable-background:new 0 0 48 48;" xml:space="preserve">
<style type="text/css">
	.st0{fill:#B8B8D0;}
	.st1{fill:#FFFFFF;}
	.st2{fill:#78C850;}
	.st3{fill:#6890F0;}
	.st4{fill:#C03028;}
	.st5{fill:#F8D030;}
	.st6{fill:none;stroke:#FFFFFF;stroke-miterlimit:10;}
</style>
<path class="st0" d="M40,48H8c-4.4,0-8-3.6-8-8V8c0-4.4,3.6-8,8-8h32c4.4,0,8,3.6,8,8v32C48,44.4,44.4,48,40,48z"/>
<g id="XMLID_1_">
	<g>
		<path class="st1" d="M30,24h6c0,6.6-5.4,12-12,12s-12-5.4-12-12h6c0,3.3,2.7,6,6,6S30,27.3,30,24z"/>
		<path class="st2" d="M42,24h-6c0-6.6-5.4-12-12-12V6C33.9,6,42,14.1,42,24z"/>
		<path class="st3" d="M36,24h6c0,9.9-8.1,18-18,18S6,33.9,6,24S14.1,6,24,6v6c-6.6,0-12,5.4-12,12s5.4,12,12,12S36,30.6,36,24z"/>
		<path class="st4" d="M36,24h-6c0-3.3-2.7-6-6-6s-6,2.7-6,6h-6c0-6.6,5.4-12,12-12S36,17.4,36,24z"/>
		<circle class="st5" cx="24" cy="24" r="6"/>
	</g>
	<g>
		<circle class="st6" cx="24" cy="24" r="18"/>
		<circle class="st6" cx="24" cy="24" r="12"/>
		<circle class="st6" cx="24" cy="24" r="6"/>
		<line class="st6" x1="12" y1="24" x2="18" y2="24"/>
		<polyline class="st6" points="30,24 36,24 42,24 		"/>
		<line class="st6" x1="24" y1="6" x2="24" y2="12"/>
	</g>
</g>
<g>
</g>
<g>
</g>
<g>
</g>
<g>
</g>
<g>
</g>
<g>
</g>
</svg>
