<svg xmlns="http://www.w3.org/2000/svg" viewBox="0 0 48 48">
<path fill="#B8B8D0" d="M40,48H8c-4.4,0-8-3.6-8-8V8c0-4.4,3.6-8,8-8h32c4.4,0,8,3.6,8,8v32C48,44.4,44.4,48,40,48z"/>
<path fill="#FFFFFF" d="M30,24h6c0,6.6-5.4,12-12,12s-12-5.4-12-12h6c0,3.3,2.7,6,6,6S30,27.3,30,24z"/>
<path fill="#78C850" d="M42,24h-6c0-6.6-5.4-12-12-12V6C33.9,6,42,14.1,42,24z"/>
<path fill="#6890F0" d="M36,24h6c0,9.9-8.1,18-18,18S6,33.9,6,24S14.1,6,24,6v6c-6.6,0-12,5.4-12,12s5.4,12,12,12S36,30.6,36,24z"/>
<path fill="#C03028" d="M36,24h-6c0-3.3-2.7-6-6-6s-6,2.7-6,6h-6c0-6.6,5.4-12,12-12S36,17.4,36,24z"/>
<circle fill="#F8D030" cx="24" cy="24" r="6"/>
<g fill="none" stroke="#FFF">
	<circle cx="24" cy="24" r="18"/>
	<circle cx="24" cy="24" r="12"/>
	<circle cx="24" cy="24" r="6"/>
	<line x1="12" y1="24" x2="18" y2="24"/>
	<polyline points="30,24 36,24 42,24"/>
	<line x1="24" y1="6" x2="24" y2="12"/>
</g>
</svg>